<svg version="1.1" id="Capa_1" xmlns="http://www.w3.org/2000/svg" x="0" y="0" viewBox="0 0 500 150" xml:space="preserve"><style>.st0{fill:#765cf3}.st1{fill:#3bcdbd}</style><path class="st0" d="M273.2 124.6h-3l3.1-7.2 5.7 13.4h3.2l-7.4-16.4h-3l-7.4 16.4h3.2l1.6-3.8h5.1m88.5-2.4h-3l3-7.2 5.8 13.4h3.2l-7.4-16.4h-3l-7.4 16.4h3.1l1.6-3.8h5.1"/><path class="st1" d="M491.4 45.8c-.3-1.1-.8-2.6-.5-3.7 2-7.6.1-14.1-4-19.2-.1-.1-.3-.2-.5-.1-4.4 1.9-8.1 4.5-12.1 5-5.9.8-12 .3-18 0-.6 0-1.3-.1-1.9-.1-4.9-.3-9.8-1.1-14.7-1.1-5.1 0-10.1 1.3-14.5 6.3-.7.8-1.6 1.8-2.7 1.3-2.6-1.3-4.8-3.3-7.7-5.4-.3-.2-.7 0-.6.4.4 3.2.8 6.1 1.3 9.5 0 .3-.2.5-.5.5-1.3-.2-2.9-.5-4-.7-.4-.1-.6.4-.3.7 1.3 1 3.2 2.5 4.6 3.5.2.1.2.3.1.5-4 6.9-2.9 14.3-1 21.6.2.6.3 1.3.6 1.9q.15.15 0 .3c-.4 1.2-.4 2.6-.4 4.2 0 12.5 1.1 23.4 14.6 29.5 5.1 2.6 16.9 4.8 26.4 4.8 9.6 0 16.7-1.3 23.9-4.9 11.9-5.6 13.7-15.4 14.6-26.8 0 0 .1-.7.1-2.7s-.1-2.3-.3-3.7v-.1c.4-8.1-1.1-15.6-2.5-21.5m-68.9 24c1.9-2.4 5.5-3.6 10.9-3.6.7 0 1.4 0 2.1.1h.4c.3 0 .5.1.8.1 1.1.1 2 .3 3 .5 3.9.8 6.5 1 7.1 5 .8 5-3.6 11.8-8.6 13.5q-2.7.9-5.4.9c-5.6 0-10-3-11.2-7.6-1-3.9-.7-6.9.9-8.9m32.7 31h-.8c-11.2-.2-23.9-3.4-30.2-10.2l.4-.7c13.6 4.6 23.7-.7 28-14.6.3-1 .8-1.8 1.6-2.8l.2-.2.3-.3c.1.1.2.3.2.4.7 1 1.3 2 1.6 3 3.4 12.3 8.6 17.1 18.6 17.1 2.3 0 4.9-.3 7.9-.8.4-.1.6.4.3.7-5.9 5.3-16.2 8.4-28.1 8.4m32.4-24.7c-.3 6.1-2.3 9.3-6.6 10.5-7.3 2.1-12.3.9-15.1-3.4-2.4-3.6-4.2-9.2-3-12.3 1-2.5 4.5-3.7 10.8-3.7 6.2.2 10.2 1.3 12.2 3.5 1.3 1.2 1.9 3 1.7 5.4m-7.5-14.7c-.8 0-3.3.3-3.8.3-3.2.3-4.1.3-6.5.7-3.2.4-6.2 1.3-10.5 1.5l-1.4.1c-1.4.1-2.3.2-3.7 0-.3 0-.7-.1-1.1-.1-1.6-.2-2.9-.4-4.5-.7-2.1-.5-3.8-1-9.2-1.5-3.4-.3-5.7-.4-8.3-.5l-3.4-.2c-.7 0-1.9-.1-2.7-.1-.7 0-1.3.1-1.9.1 3.4-5 7.6-10.2 16.8-8.3 12.2 2.5 18.1 2.9 22.4 2.8 10.7-.3 18.2-2.8 23.5-7.6.2-.2.6-.1.7.2.6 2.9.6 10 1.1 12.6 0 .3-.1.5-.4.5-.7-.1-2.6-.1-7.1.2"/><path d="M476.4 27.3c-.3 4.1-3.1 25.3-24.1 27.6 4.5.6 7.6.7 10.1.6 10.7-.3 18.2-2.8 23.5-7.6l.1-.1c.6-.4 3.2-2.2 4.9-5.8 2-7.6.1-14.1-4-19.2-.1-.1-.3-.2-.5-.1-3.6 1.6-6.8 3.6-10 4.6" style="fill:#4ae5c7"/><path class="st1" d="M257.7 94.6q-2.4 1.8-6 2.7t-7.5.9c-6.8 0-12-1.7-15.7-5.2s-5.5-8.5-5.5-15.2V54.5h-8.8v-3.9c0-4.8 3.9-8.8 8.8-8.8 0-7.6 6.2-13.8 13.8-13.8h2.6v13.8h14.2c0 7-5.7 12.7-12.7 12.7h-1.5v23.2c0 2.4.6 4.2 1.8 5.5s3 2 5.2 2h.1c4.3 0 8.2 2.2 9.8 6.2zM126.1 46c4.7 4.2 7.1 10.5 7.1 19v17c0 8.5-6.9 15.4-15.4 15.4v-7.1c-3.1 5.3-8.9 7.9-17.3 7.9-4.4 0-8.2-.7-11.4-2.2s-5.7-3.5-7.3-6.1c-1.7-2.6-2.5-5.6-2.5-8.9 0-5.3 2-9.4 6-12.5 4-3 10.1-4.5 18.4-4.5h13.1c0-3.6-1.1-6.4-3.3-8.3s-5.5-2.9-9.8-2.9c-3 0-6 .5-8.9 1.4h-.1c-4.5 1.5-9.5-.3-11.7-4.5l-1.6-3.1q4.65-3.3 11.1-5.1c4.3-1.2 8.8-1.8 13.4-1.8 8.7 0 15.5 2.1 20.2 6.3M112 85.2c2.2-1.3 3.7-3.2 4.7-5.8v-5.8h-11.3c-6.8 0-10.1 2.2-10.1 6.7 0 2.1.8 3.8 2.5 5s3.9 1.8 6.8 1.8c2.8 0 5.3-.6 7.4-1.9m208.6-11.6h-43c.8 3.5 2.6 6.3 5.5 8.3s6.5 3.1 10.8 3.1c3 0 5.6-.4 7.9-1.3h.1c4.4-1.7 9.3-.9 12.5 2.6l2.6 2.8c-5.4 6.1-13.2 9.2-23.5 9.2-6.4 0-12.1-1.2-17-3.8-4.9-2.5-8.7-6-11.4-10.4s-4-9.5-4-15.1 1.3-10.6 4-15.1c2.6-4.5 6.3-8 10.9-10.5s9.8-3.8 15.5-3.8c5.6 0 10.6 1.2 15.1 3.6s8 5.8 10.6 10.3q3.9 6.75 3.9 15.6c-.2.3-.3 1.8-.5 4.5M282 55.3c-2.5 2.1-4.1 5-4.6 8.7h28c-.6-3.6-2.1-6.5-4.6-8.6s-5.6-3.2-9.3-3.2c-3.8 0-7 1-9.5 3.1m105.3 18.3h-43c.8 3.5 2.6 6.3 5.5 8.3s6.5 3.1 10.8 3.1c3 0 5.6-.4 7.9-1.3h.1c4.4-1.7 9.3-.9 12.5 2.6l2.6 2.8c-5.4 6.1-13.2 9.2-23.5 9.2-6.4 0-12.1-1.2-17-3.8-4.9-2.5-8.7-6-11.4-10.4s-4-9.5-4-15.1 1.3-10.6 4-15.1c2.6-4.5 6.3-8 10.9-10.5s9.8-3.8 15.5-3.8c5.6 0 10.6 1.2 15.1 3.6s8 5.8 10.6 10.3q3.9 6.75 3.9 15.6c-.2.3-.3 1.8-.5 4.5m-38.6-18.3c-2.5 2.1-4.1 5-4.6 8.7h28c-.6-3.6-2.1-6.5-4.6-8.6s-5.6-3.2-9.3-3.2c-3.8 0-7 1-9.5 3.1"/><path class="st0" d="M200.6 122.4h2.9v6.5q-1.2 1.05-3 1.5c-1.1.4-2.3.5-3.5.5-1.7 0-3.2-.4-4.5-1.1s-2.4-1.7-3.2-3-1.1-2.7-1.1-4.3.4-3.1 1.1-4.3c.8-1.3 1.8-2.3 3.2-3s2.9-1.1 4.6-1.1c1.4 0 2.6.2 3.8.7 1.1.5 2.1 1.1 2.8 2l-1.9 1.9c-1.3-1.2-2.8-1.9-4.5-1.9-1.2 0-2.2.2-3.1.7s-1.6 1.2-2.1 2c-.5.9-.8 1.9-.8 3s.3 2.1.8 3q.75 1.35 2.1 2.1c.9.5 1.9.7 3.1.7 1.3 0 2.4-.3 3.4-.8v-5.1zm19.2 5.8v2.6h-12.3v-16.4h12v2.6h-8.9v4.3h7.9v2.5h-7.9v4.5h9.2zm25.5 1.7c-1.3-.7-2.4-1.7-3.1-3-.8-1.3-1.1-2.7-1.1-4.3s.4-3.1 1.1-4.3c.8-1.3 1.8-2.3 3.2-3 1.3-.7 2.8-1.1 4.5-1.1 1.3 0 2.6.2 3.7.7s2 1.1 2.8 2l-2 1.9c-1.2-1.3-2.6-1.9-4.4-1.9-1.1 0-2.1.2-3 .7q-1.35.75-2.1 2.1c-.5.9-.8 1.9-.8 3s.3 2.1.8 3q.75 1.35 2.1 2.1c.9.5 1.9.7 3 .7 1.7 0 3.2-.6 4.4-1.9l2 1.9c-.8.9-1.7 1.6-2.8 2-1.1.5-2.3.7-3.7.7-1.8-.2-3.3-.5-4.6-1.3m13.9-15.5h3v16.4h-3zm31.5 0h7.2c1.8 0 3.3.3 4.7 1s2.4 1.6 3.2 2.9c.8 1.2 1.1 2.7 1.1 4.3s-.4 3.1-1.1 4.3-1.8 2.2-3.2 2.9-2.9 1-4.7 1h-7.2zm7 13.8c1.2 0 2.3-.2 3.2-.7s1.6-1.1 2.1-2 .7-1.8.7-3c0-1.1-.2-2.1-.7-3s-1.2-1.5-2.1-2-2-.7-3.2-.7h-4v11.3h4zm12.4-13.8h3v16.4h-3zm18.7 8h2.9v6.5q-1.2 1.05-3 1.5c-1.1.4-2.3.5-3.5.5-1.7 0-3.2-.4-4.5-1.1s-2.4-1.7-3.2-3-1.1-2.7-1.1-4.3.4-3.1 1.1-4.3c.8-1.3 1.8-2.3 3.2-3s2.9-1.1 4.6-1.1c1.4 0 2.6.2 3.8.7 1.1.5 2.1 1.1 2.8 2l-1.9 1.9c-1.3-1.2-2.8-1.9-4.5-1.9-1.2 0-2.2.2-3.1.7s-1.6 1.2-2.1 2c-.5.9-.8 1.9-.8 3s.3 2.1.8 3q.75 1.35 2.1 2.1c.9.5 1.9.7 3.1.7 1.3 0 2.4-.3 3.4-.8v-5.1zm6.9-8h3v16.4h-3zm10.8 2.6H341v-2.6h14v2.6h-5.4v13.8h-3V117zm27.5-2.6h3v13.8h8.6v2.6H374zm-136.3 10.3v-10.3h-3v6.5zm-4.4-.9-7.6-9.4h-2.5v16.4h3v-11.1l9 11.1h2.5v-1.4zM50.5 62.7c.6 1.9 1 3.9 1 6.2 0 4.8-1.4 8.6-4.1 11.5-2.8 2.9-6.2 4.3-10.4 4.3-2.6 0-4.8-.6-6.9-1.7L19 94.2c.2.1.4.3.6.4 4.3 2.4 9.2 3.6 14.5 3.6 7.8 0 13.7-2.5 17.8-7.4v6.6c8.7 0 15.7-7 15.7-15.7V45.6zM206.3 53c-1.9-3.4-4.4-6.2-7.4-8.4l.1.1-11.2 11.2c.5.4.9.7 1.3 1.2 2.7 2.9 4.1 6.7 4.1 11.5s-1.4 8.6-4.1 11.5-6.2 4.3-10.5 4.3c-4.2 0-7.6-1.4-10.4-4.3-.8-.8-1.4-1.7-1.9-2.7L148 95.7v22.8c9.1 0 16.5-7.4 16.5-16.5V90.8c4.1 4.6 9.8 6.9 17 6.9 5.4 0 10.2-1.2 14.5-3.6s7.7-5.8 10.2-10.3c2.5-4.4 3.7-9.6 3.7-15.4.1-5.8-1.1-11-3.6-15.4"/><path class="st1" d="M27.7 81.4c-.4-.3-.8-.6-1.1-1-2.7-2.9-4.1-6.7-4.1-11.5s1.4-8.6 4.1-11.5 6.2-4.3 10.5-4.3c4.2 0 7.6 1.4 10.4 4.3.7.7 1.3 1.6 1.8 2.4l18.5-18.5V19c-9.1 0-16.5 7.4-16.5 16.5v11.1c-4.1-4.6-9.8-6.9-17-6.9-5.4 0-10.2 1.2-14.5 3.6s-7.7 5.8-10.2 10.3C6.9 58 5.7 63.1 5.7 69s1.2 11 3.7 15.4c1.8 3.3 4.2 6 7.1 8.2zm137.5-7q-.9-2.7-.9-6c0-4.8 1.4-8.6 4.1-11.5 2.8-2.9 6.2-4.3 10.4-4.3q3.75 0 6.6 1.5L196.5 43c-.1-.1-.3-.2-.4-.3-4.3-2.4-9.2-3.6-14.5-3.6-7.8 0-13.7 2.5-17.8 7.4V40c-8.7 0-15.7 7-15.7 15.7v35.7z"/><path class="st0" d="M178.5 124.6h-3l3.1-7.2 5.7 13.4h3.2l-7.4-16.4h-3l-7.4 16.4h3.1l1.7-3.8h5"/></svg>